<?xml version="1.0" encoding="UTF-8" standalone="no"?>
<svg width="600px" height="600px" viewBox="0 0 600 600" version="1.1" xmlns="http://www.w3.org/2000/svg" xmlns:xlink="http://www.w3.org/1999/xlink">
    <!-- Generator: Sketch 39.1 (31720) - http://www.bohemiancoding.com/sketch -->
    <title>Honeyguide SEM Logo</title>
    <desc>Created with Sketch.</desc>
    <defs></defs>
    <g id="Page-1" stroke="none" stroke-width="1" fill="none" fill-rule="evenodd">
        <g id="Honeyguide-SEM-Logo" fill="#FFD500">
            <path d="M282.962527,36.0045756 C292.532757,30.4792011 308.051147,30.4803456 317.619394,36.0045756 L520.253488,152.995424 C529.823717,158.520799 537.581921,171.960691 537.581921,183.009151 L537.581921,416.990849 C537.581921,428.041598 529.821735,441.480346 520.253488,447.004576 L317.619394,563.995424 C308.049164,569.520799 292.530774,569.519654 282.962527,563.995424 L80.3284333,447.004576 C70.7582038,441.479201 63,428.039309 63,416.990849 L63,183.009151 C63,171.958402 70.7601862,158.519654 80.3284333,152.995424 L282.962527,36.0045756 Z M327.416204,398.201679 L319.267722,393.315253 L333.354476,366.318749 C345.927369,370.086756 355.216904,372.637816 354.596448,372.901443 C353.227716,372.693737 352.279723,372.648468 351.158641,372.488694 C370.877433,380.010061 380.796744,388.424833 383.972255,395.209908 L393.793039,412.697188 C394.236412,414.148469 394.627859,415.511875 394.951402,416.758114 L417.182911,463.393242 C422.498064,454.227532 430.890201,453.101124 439.99999,452.000014 L396.20696,378.102092 C396.836736,378.341753 419.617866,386.952248 414.759401,374.706891 C393.872926,327.706665 380.061783,299.190975 352.19451,259.962429 C332.42246,229.050127 312.344176,212.462908 288.545818,193.349927 C269.756379,169.455704 254.221007,147.746392 220.820222,148.336225 C201.693926,150.708871 194.904857,151.114964 181.912556,162.998166 C176.767829,167.704846 174.16351,171.492824 172.895969,174.355444 L164.933891,177.622825 C158.830519,180.125954 147.763496,188.950812 145.747679,195.216621 C145.201784,196.915553 144.980764,200.569055 144.980764,200.569055 C144.987421,200.575712 145.480058,199.533186 146.495955,198.370829 C153.85888,198.996611 157.941109,201.020417 169.956125,200.927215 L178.477412,200.864637 L187.615162,208.653626 C215.895185,239.343576 195.297635,250.891252 215.322661,286.827119 C235.347686,322.762987 255.319454,330.691778 277.208511,344.952952 C287.058587,351.370546 307.761321,358.427238 325.283219,363.846244 L312.762252,391.670911 L291.578864,394.92764 L278.410812,405.169163 C277.536048,404.925507 272.59237,403.633999 270.501992,404.676526 C267.423676,406.21302 266.321235,412.851636 266.321235,412.851636 C266.321235,412.851636 268.278468,407.9013 270.82154,406.785544 C272.405967,406.09319 275.544197,406.496619 277.292393,406.802853 C278.31761,408.04776 281.233488,411.303158 283.430383,411.223271 C289.200892,411.006245 296.46529,399.81806 296.46529,399.81806 L317.648678,401.446425 L327.426855,409.594906 C327.426855,409.594906 329.361454,415.253574 331.501096,416.925877 C334.323772,419.128097 338.355406,416.252162 339.862609,415.008587 C341.633439,414.755611 344.016737,414.574534 345.330879,415.155046 C347.877945,416.266808 349.835178,421.213149 349.835178,421.213149 C349.835178,421.213149 348.730074,414.578528 345.654422,413.042033 C344.176511,412.30441 341.269953,412.7358 339.38595,413.135235 L327.416204,398.201679 Z" id="Shapes"></path>
        </g>
    </g>
</svg>